<svg xmlns="http://www.w3.org/2000/svg" style="display:none">
  <symbol id="box" viewBox="0 0 24 24" fill="none" stroke="currentColor" stroke-width="2" stroke-linecap="round" stroke-linejoin="round">
    <path d="M21 16V8a2 2 0 0 0-1-1.73L13 2.27a2 2 0 0 0-2 0L4 6.27A2 2 0 0 0 3 8v8a2 2 0 0 0 1 1.73l7 4.04a2 2 0 0 0 2 0l7-4.04A2 2 0 0 0 21 16Z"/>
    <path d="M3.27 6.96 12 12.01l8.73-5.05"/>
    <path d="M12 22.08V12"/>
  </symbol>
  <symbol id="scan" viewBox="0 0 24 24" fill="none" stroke="currentColor" stroke-width="2" stroke-linecap="round" stroke-linejoin="round">
    <path d="M3 7V5a2 2 0 0 1 2-2h2"/>
    <path d="M17 3h2a2 2 0 0 1 2 2v2"/>
    <path d="M21 17v2a2 2 0 0 1-2 2h-2"/>
    <path d="M7 21H5a2 2 0 0 1-2-2v-2"/>
  </symbol>
  <symbol id="truck" viewBox="0 0 24 24" fill="none" stroke="currentColor" stroke-width="2" stroke-linecap="round" stroke-linejoin="round">
    <path d="M10 17h4V5H2v12h3"/>
    <path d="M15 17h2a3 3 0 0 0 6 0h1v-5l-2-3h-7"/>
    <circle cx="7" cy="17" r="2"/>
    <circle cx="17" cy="17" r="2"/>
  </symbol>
  <symbol id="coins" viewBox="0 0 24 24" fill="none" stroke="currentColor" stroke-width="2" stroke-linecap="round" stroke-linejoin="round">
    <circle cx="8" cy="8" r="5"/>
    <circle cx="16" cy="16" r="5"/>
  </symbol>
  <symbol id="alert" viewBox="0 0 24 24" fill="none" stroke="currentColor" stroke-width="2" stroke-linecap="round" stroke-linejoin="round">
    <path d="M12 9v4"/>
    <path d="M12 17h.01"/>
    <path d="M10.29 3.86 1.82 18a2 2 0 0 0 1.71 3h16.94a2 2 0 0 0 1.71-3L13.29 3.86a2 2 0 0 0-3.58 0Z"/>
  </symbol>
  <symbol id="check" viewBox="0 0 24 24" fill="none" stroke="currentColor" stroke-width="2" stroke-linecap="round" stroke-linejoin="round">
    <path d="M20 6 9 17l-5-5"/>
  </symbol>
  <symbol id="x" viewBox="0 0 24 24" fill="none" stroke="currentColor" stroke-width="2" stroke-linecap="round" stroke-linejoin="round">
    <path d="M18 6 6 18"/>
    <path d="M6 6l12 12"/>
  </symbol>
</svg>
